<?xml version="1.0" encoding="UTF-8"?> <svg xmlns="http://www.w3.org/2000/svg" xmlns:xlink="http://www.w3.org/1999/xlink" width="534px" height="451px" viewBox="0 0 534 451" version="1.1"><title>img_profit</title><g id="SEO-Pages" stroke="none" stroke-width="1" fill="none" fill-rule="evenodd"><g id="SEO" transform="translate(-803.000000, -1108.000000)"><g id="img_profit" transform="translate(803.000000, 1108.000000)"><path d="M534,106.796518 C533.298707,70.0469332 530.242518,34.3639276 525.154777,0 C497.115124,12.7671193 468.987543,22.8359637 441.137217,30.1301469 L472.540098,56.0555115 C447.019851,100.628325 417.106774,142.023328 383.387288,179.156965 C349.133855,216.92079 311.001685,250.278965 270.111853,278.748417 C229.221313,307.227772 185.609274,330.875693 140.322358,349.540117 C117.675355,358.867731 94.6043143,366.955483 71.2028364,373.68172 C59.5013883,377.04201 47.7169764,380.059975 35.8538552,382.674084 C29.9230037,383.979016 23.9715885,385.184222 17.9996096,386.26141 C12.0240853,387.327282 6.04146997,388.308987 0,389 C6.06983368,388.772256 12.1070491,388.25099 18.1456827,387.643436 C24.1807708,387.024566 30.208059,386.27697 36.2254198,385.425405 C48.2601414,383.720859 60.2565721,381.601847 72.2062026,379.130609 C96.1047545,374.179646 119.816815,367.822609 143.247366,360.155689 C190.099958,344.809118 235.855584,324.204624 279.481096,298.215604 C323.098807,272.237193 364.561585,240.8007 402.583846,204.130331 C440.003378,168.081661 474.03061,126.949767 503.762868,81.8330545 L534,106.796518 Z" id="Fill-1986" fill="#FF5254"></path><path d="M39.1323972,415.864814 L29.2727182,415.864814 L29.2727182,427.727194 L39.1323972,427.727194 C42.7889669,427.727194 45.5313942,425.406429 45.5313942,421.79635 C45.5313942,418.250044 42.7889669,415.864814 39.1323972,415.864814 L39.1323972,415.864814 Z M20,408 L40.3730191,408 C49.8409228,408 55,414.317637 55,421.860123 C55,429.338143 49.776329,435.592007 40.3730191,435.592007 L29.2727182,435.592007 L29.2727182,451 L20,451 L20,408 Z" id="Fill-1989" fill="#00225D"></path><path d="M134.860736,387.864814 L125.20352,387.864814 L125.20352,399.727194 L134.860736,399.727194 C138.555106,399.727194 141.342088,397.406429 141.342088,393.79635 C141.342088,390.185579 138.555106,387.864814 134.860736,387.864814 L134.860736,387.864814 Z M131.944127,407.592007 L125.20352,407.592007 L125.20352,423 L116,423 L116,380 L136.22182,380 C145.230899,380 150.740746,385.866378 150.740746,393.860123 C150.740746,401.467074 145.943848,405.528412 141.277971,406.625022 L151,423 L140.435396,423 L131.944127,407.592007 Z" id="Fill-1991" fill="#00225D"></path><path d="M224.467372,355.217836 C216.526318,355.217836 211.425966,361.34808 211.425966,369.5 C211.425966,377.586704 216.526318,383.782164 224.467372,383.782164 C232.408426,383.782164 237.574034,377.586704 237.574034,369.5 C237.574034,361.34808 232.408426,355.217836 224.467372,355.217836 M224.467372,347 C237.509472,347 247,356.391713 247,369.5 C247,382.608988 237.509472,392 224.467372,392 C211.490528,392 202,382.608988 202,369.5 C202,356.391713 211.490528,347 224.467372,347" id="Fill-1993" fill="#00225D"></path><polygon id="Fill-1995" fill="#00225D" points="303 304 337 304 337 311.864941 313.229355 311.864941 313.229355 321.212616 336.495774 321.212616 336.495774 329.07825 313.229355 329.07825 313.229355 347 303 347"></polygon><polygon id="Fill-1997" fill="#00225D" points="405 292 416 292 416 249 405 249"></polygon><polygon id="Fill-1999" fill="#00225D" points="479.462589 181.058341 467 181.058341 467 173 501 173 501 181.058341 488.601318 181.058341 488.601318 216 479.462589 216"></polygon></g></g></g></svg> 